# xmcd
#
# Track frame offsets:
#	150
#	12993
#	25658
#	39138
#	53754
#	73173
#	86188
#	102237
#	117963
#	136286
#	153675
#	163270
#	179129
#	193013
#	203283
#	216345
#
# Disc length: 3205 seconds
#
# Revision: 1
# Processed by: cddbd v1.5.2PL0 Copyright (c) Steve Scherf et al.
# Submitted via: audiograbber 1.83.01
#
DISCID=e20c8310
DTITLE=Sampler - The Man Is Back - A Tribute To Johnny Cash   
DYEAR=1900
DGENRE=Rock
TTITLE0=John Paul Keith - I Still Miss Someone
TTITLE1=I Am A Band  - Jackson
TTITLE2=Miss Mary Mack - Ring Of Fire
TTITLE3=The Double Agents - Don't Take Your Guns
TTITLE4=The Marinescus - As Long As The Grass
TTITLE5=Hipbone Slim and he Kneetremblers - Mean Eyed Cat
TTITLE6=The Spoils - The Folk Singer
TTITLE7=Tex Mapalm - Singer Of Songs
TTITLE8=Pete Ross And THe Sapphire - Give My Love to Rose
TTITLE9=Spencer P. Jones - Walk The Line
TTITLE10=Texas Tea - I Got A Woman
TTITLE11=Black Pony Express - Dark As A Dungeon
TTITLE12=Johanna An The Wait Jazz - Cocaïne
TTITLE13=Red - Deliah's Gone
TTITLE14=Philippe Pascal - Don't You Know Where I'm Bound
TTITLE15=Stu Thomas - Folsom Prison Blues
EXTD=
EXTT0=
EXTT1=
EXTT2=
EXTT3=
EXTT4=
EXTT5=
EXTT6=
EXTT7=
EXTT8=
EXTT9=
EXTT10=
EXTT11=
EXTT12=
EXTT13=
EXTT14=
EXTT15=
PLAYORDER=
